<svg width="40" height="49" viewBox="0 0 40 49" fill="none" xmlns="http://www.w3.org/2000/svg">
<path d="M24.0752 2.2749H6.63495C5.4786 2.2749 4.3696 2.73426 3.55193 3.55193C2.73426 4.3696 2.2749 5.4786 2.2749 6.63495V41.5154C2.2749 42.6717 2.73426 43.7807 3.55193 44.5984C4.3696 45.4161 5.4786 45.8754 6.63495 45.8754H32.7953C33.9516 45.8754 35.0606 45.4161 35.8783 44.5984C36.6959 43.7807 37.1553 42.6717 37.1553 41.5154V15.3551M24.0752 2.2749L37.1553 15.3551M24.0752 2.2749V15.3551H37.1553M28.4352 26.2552H10.995M28.4352 34.9753H10.995M15.3551 17.5351H10.995" stroke="#0F31AA" stroke-width="4.54962" stroke-linecap="round" stroke-linejoin="round"/>
</svg>
