<svg width="71" height="71" viewBox="0 0 71 71" fill="none" xmlns="http://www.w3.org/2000/svg">
<g clip-path="url(#clip0_2097_295)">
<path fill-rule="evenodd" clip-rule="evenodd" d="M35.5 5.91675C19.1611 5.91675 5.91663 19.1612 5.91663 35.5001C5.91663 51.839 19.1611 65.0834 35.5 65.0834C51.8388 65.0834 65.0833 51.839 65.0833 35.5001C65.0833 19.1612 51.8388 5.91675 35.5 5.91675ZM25.1458 28.1042C25.1458 26.7445 25.4136 25.3981 25.934 24.1419C26.4543 22.8857 27.217 21.7442 28.1785 20.7827C29.1399 19.8213 30.2814 19.0586 31.5376 18.5382C32.7938 18.0179 34.1402 17.7501 35.5 17.7501C36.8597 17.7501 38.2061 18.0179 39.4623 18.5382C40.7186 19.0586 41.86 19.8213 42.8215 20.7827C43.7829 21.7442 44.5456 22.8857 45.066 24.1419C45.5863 25.3981 45.8541 26.7445 45.8541 28.1042C45.8541 30.8503 44.7632 33.484 42.8215 35.4258C40.8797 37.3675 38.2461 38.4584 35.5 38.4584C32.7539 38.4584 30.1202 37.3675 28.1785 35.4258C26.2367 33.484 25.1458 30.8503 25.1458 28.1042ZM54.0132 50.2444C51.7987 53.0301 48.9835 55.2794 45.7777 56.8244C42.572 58.3693 39.0586 59.1701 35.5 59.1668C31.9413 59.1701 28.428 58.3693 25.2222 56.8244C22.0165 55.2794 19.2012 53.0301 16.9867 50.2444C21.7822 46.8039 28.326 44.3751 35.5 44.3751C42.6739 44.3751 49.2178 46.8039 54.0132 50.2444Z" fill="#AD9FF8"/>
</g>
<defs>
<clipPath id="clip0_2097_295">
<rect width="71" height="71" fill="white"/>
</clipPath>
</defs>
</svg>
